<svg width="146" height="147" viewBox="0 0 146 147" fill="none" xmlns="http://www.w3.org/2000/svg">
<path d="M22.4922 145.963L19.563 137.267H20.2529L21.7504 141.753C22.1628 142.991 22.672 144.524 22.8836 145.302H22.9086C23.0843 144.635 23.6554 143.052 24.1066 141.741L25.6411 137.267H26.329L23.276 145.963H22.4922Z" fill="white"/>
<path d="M28.3268 137.267V145.963H27.6838V137.267H28.3268Z" fill="white"/>
<path d="M31.258 141.778V145.963H30.6081V137.267H33.3935C34.8632 137.267 35.8815 137.996 35.8815 139.438C35.8815 140.736 35.0588 141.29 34.4059 141.468C35.3434 141.732 35.7797 142.471 35.7797 143.72V143.835C35.7797 144.661 35.7797 145.432 35.9045 145.963H35.2425C35.1297 145.623 35.1048 144.679 35.1048 143.872V143.731C35.1048 142.349 34.6056 141.778 32.9882 141.778H31.258ZM31.258 141.208H33.0401C34.358 141.208 35.1936 140.823 35.1936 139.441C35.1936 138.431 34.5437 137.837 33.3027 137.837H31.258V141.208Z" fill="white"/>
<path d="M39.4447 137.862H36.782V137.263H42.7723V137.862H40.0977V145.963H39.4467L39.4447 137.862Z" fill="white"/>
<path d="M44.6683 137.267V142.805C44.6683 144.432 45.3242 145.481 46.9835 145.481C48.6428 145.481 49.2608 144.483 49.2608 142.793V137.267H49.9367V142.843C49.9367 144.684 49.1849 146.087 46.9575 146.087C44.9897 146.087 44.0043 145.065 44.0043 142.941V137.267H44.6683Z" fill="white"/>
<path d="M52.6433 142.951L51.6449 145.963H50.982C51.9045 143.221 52.8879 140.377 53.9202 137.267H54.705L57.757 145.963H57.0432L56.0378 142.951H52.6433ZM55.8381 142.352C54.9805 139.813 54.4574 138.486 54.3056 137.868H54.2806C54.0191 138.931 53.5329 140.264 52.836 142.352H55.8381Z" fill="white"/>
<path d="M59.0699 137.267H59.7079V145.38H64.0828L63.956 145.963H59.0699V137.267Z" fill="white"/>
<path d="M69.2494 142.951L68.251 145.963H67.5881C68.5106 143.221 69.494 140.377 70.5263 137.267H71.313L74.3651 145.963H73.6502L72.6438 142.951H69.2494ZM72.4442 142.352C71.5866 139.813 71.0634 138.486 70.9117 137.868H70.8867C70.6251 138.931 70.1379 140.264 69.442 142.352H72.4442Z" fill="white"/>
<path d="M76.3259 141.778V145.963H75.6749V137.267H78.4604C79.931 137.267 80.9494 137.996 80.9494 139.438C80.9494 140.736 80.1267 141.29 79.4728 141.468C80.4112 141.732 80.8465 142.471 80.8465 143.72V143.835C80.8465 144.661 80.8465 145.432 80.9723 145.963H80.3104C80.1976 145.623 80.1716 144.679 80.1716 143.872V143.731C80.1716 142.349 79.6724 141.778 78.0551 141.778H76.3259ZM76.3259 141.208H78.107C79.4249 141.208 80.2615 140.823 80.2615 139.441C80.2615 138.431 79.6115 137.837 78.3646 137.837H76.3209L76.3259 141.208Z" fill="white"/>
<path d="M84.5116 137.862H81.8499V137.263H87.8402V137.862H85.1665V145.963H84.5146L84.5116 137.862Z" fill="white"/>
<path d="M92.1192 143.578C92.3189 144.919 93.2364 145.481 94.3356 145.481C95.4109 145.481 96.3134 144.882 96.3134 143.693C96.3134 142.622 95.8741 142.162 94.1799 141.615C92.4856 141.068 91.7838 140.532 91.7838 139.291C91.7838 138.05 92.6693 137.154 94.2627 137.154C95.9989 137.154 96.7417 138.268 96.8296 139.389H96.1726C96.0239 138.346 95.3919 137.735 94.2188 137.735C93.0457 137.735 92.4657 138.319 92.4657 139.24C92.4657 140.16 92.9289 140.568 94.4265 141.031C96.5231 141.682 97.0003 142.461 97.0003 143.626C97.0003 145.092 95.962 146.05 94.3047 146.05C92.5595 146.05 91.6021 145.073 91.4643 143.577L92.1192 143.578Z" fill="white"/>
<path d="M98.5977 137.267H101.339C102.944 137.267 103.992 138.106 103.992 139.554C103.992 141.199 102.872 141.979 101.197 141.979H99.2447V145.963H98.5937L98.5977 137.267ZM99.2487 141.397H101.199C102.444 141.397 103.316 140.986 103.316 139.567C103.316 138.396 102.456 137.837 101.188 137.837H99.2487V141.397Z" fill="white"/>
<path d="M105.406 142.951L104.407 145.963H103.744C104.667 143.221 105.65 140.377 106.683 137.267H107.467L110.519 145.963H109.806L108.798 142.951H105.406ZM108.6 142.352C107.743 139.813 107.22 138.486 107.068 137.868H107.043C106.781 138.931 106.295 140.264 105.598 142.352H108.6Z" fill="white"/>
<path d="M117.652 143.562C117.377 144.893 116.522 146.087 114.598 146.087C112.173 146.087 111.22 144.191 111.22 141.517C111.22 139.33 112.228 137.142 114.649 137.142C116.428 137.142 117.391 138.179 117.614 139.716H116.939C116.69 138.512 115.986 137.736 114.623 137.736C112.741 137.736 111.897 139.521 111.897 141.53C111.897 143.466 112.519 145.494 114.624 145.494C115.997 145.494 116.654 144.754 116.989 143.563L117.652 143.562Z" fill="white"/>
<path d="M123.907 141.676H119.913V145.38H124.294L124.194 145.963H119.278V137.267H124.108V137.85H119.915V141.081H123.909L123.907 141.676Z" fill="white"/>
<path d="M21.6766 109.129H5.67755V123.349H24.2544V124.328H0.700623V93.2203H24.2544V94.1967H5.67755V108.062H21.6766V109.129Z" fill="white"/>
<path d="M42.1603 111.263V112.24H27.8535V111.263H42.1603Z" fill="white"/>
<path d="M79.4488 124.329H74.0715L68.9608 114.245H51.629L46.4294 124.329H45.3182L61.3172 93.2203H63.5386L79.4488 124.329ZM68.4666 113.263L60.4307 97.2198L52.1172 113.266L68.4666 113.263Z" fill="white"/>
<path d="M84.3808 93.2203H96.2466C105.446 93.2203 109.179 97.3136 109.179 101.486C109.179 105.086 106.423 108.73 100.469 109.885L116.022 124.329H109.001L95.0026 110.241H89.3587V124.329H84.3808V93.2203ZM96.2915 109.263C100.735 109.263 104.068 105.353 104.068 101.531C104.068 97.7968 102.202 94.1977 96.2016 94.1977H89.3587V109.263H96.2915Z" fill="white"/>
<path d="M116.867 93.2203H145.892V94.1967H133.844V124.328H128.911V94.1967H116.867V93.2203Z" fill="white"/>
<path d="M106.298 52.7909C104.964 52.6571 104.336 53.301 103.344 54.8935C99.128 61.6325 92.6516 66.6516 85.0737 69.0525C77.4457 71.4641 69.2151 71.1371 61.8024 68.128C54.4853 65.1618 48.4032 59.6368 44.6742 52.5702C40.9343 45.4818 39.8351 37.3509 41.5793 29.6734C44.2569 17.8316 51.4862 9.5341 63.0494 5.01942C64.3643 4.50626 64.8465 4.00307 64.9533 3.02267C65.0701 1.97936 64.7457 1.06983 64.0638 0.526717C63.607 0.174012 63.0433 -0.0116705 62.4664 0.000568549C62.0502 0.00463302 61.6378 0.0788913 61.2463 0.220213C46.2537 5.50164 35.7208 20.4324 35.6389 36.5333C35.587 46.7796 39.4996 56.3821 46.655 63.5724C54.4614 71.4156 65.4375 75.7356 77.5618 75.7386C90.0895 75.2265 101.018 68.4085 108.334 56.5358C108.8 55.78 108.855 54.9574 108.49 54.2186C108.096 53.4229 107.278 52.8887 106.298 52.7909Z" fill="white"/>
<path d="M47.8381 38.3294C47.9679 39.6542 48.0917 40.9052 48.3213 42.1492C50.0066 51.2873 56.4431 58.7133 65.5384 62.0169C74.6336 65.3206 84.3019 63.7421 91.4383 57.8237C91.8587 57.4743 92.237 56.8253 92.3189 56.3262C92.4976 55.209 92.0194 54.3484 90.8453 53.6944C90.0466 53.2471 89.5135 53.3719 88.2575 54.3014C84.6454 56.9751 80.8585 58.5455 77.0018 58.9689C73.0672 59.4012 69.0477 58.6404 65.0592 56.7075C57.0721 52.8388 52.7401 46.0249 52.5255 37.0155C52.3019 27.5708 58.0286 19.461 67.4722 15.8498C68.9968 15.2658 69.5688 14.0258 68.9958 12.5322C68.5525 11.3731 67.8646 10.7351 65.9467 11.3891C55.1732 15.0521 48.0008 24.9331 47.6514 36.5652C47.7223 37.1563 47.7812 37.7523 47.8381 38.3294Z" fill="white"/>
<path d="M76.7612 39.6272C80.8126 39.6432 84.9329 39.6412 88.9174 39.6382H93.7636H101.651C103.48 27.4979 94.129 13.7253 82.2303 11.1584C81.8499 11.0766 80.8326 11.4819 80.3943 11.9691C80.1544 12.2222 79.9828 12.5321 79.8955 12.8696C79.8082 13.2072 79.8081 13.5614 79.8951 13.899C80.1087 14.7486 80.7936 15.4555 81.7361 15.7899C89.2459 18.4616 94.1689 23.6452 96.3663 31.1939C96.4808 31.6237 96.5626 32.0616 96.611 32.5038C96.6439 32.7424 96.6779 32.988 96.7238 33.2716L96.9424 34.6054H92.889C91.3235 34.6054 89.7594 34.6054 88.1966 34.6054H83.9914C81.5544 34.6054 79.0994 34.6054 76.6613 34.6234C75.4183 34.6303 73.9338 35.0606 73.9188 37.0674C73.9188 37.8092 74.1384 38.4302 74.5677 38.8645C75.0569 39.3577 75.8167 39.6232 76.7612 39.6272Z" fill="white"/>
</svg>
