<svg width="123" height="35" viewBox="0 0 123 35" fill="none" xmlns="http://www.w3.org/2000/svg">
<path opacity="0.58" fill-rule="evenodd" clip-rule="evenodd" d="M75.0618 31.0448H75.1049C75.1006 31.0626 75.113 31.0648 75.1259 31.0658V31.1084C75.1082 31.1046 75.106 31.117 75.1049 31.1305H75.0618C75.0661 31.1121 75.0538 31.11 75.0408 31.1084V31.0658C75.0586 31.0701 75.0608 31.0578 75.0618 31.0448Z" fill="#9093B6"/>
<path opacity="0.58" fill-rule="evenodd" clip-rule="evenodd" d="M76.101 31.0448H76.1436C76.1398 31.0626 76.1516 31.0647 76.1646 31.0658V31.1083C76.1468 31.1046 76.1446 31.117 76.1436 31.1304H76.101C76.1048 31.1121 76.0924 31.11 76.0795 31.1083V31.0658C76.0972 31.0701 76.0994 31.0577 76.101 31.0448Z" fill="#9093B6"/>
<path opacity="0.58" fill-rule="evenodd" clip-rule="evenodd" d="M92.8864 31.0448H92.9295C92.9252 31.0626 92.9376 31.0647 92.951 31.0658V31.1083C92.9327 31.1046 92.9306 31.117 92.9295 31.1304H92.8864C92.8907 31.1121 92.8783 31.11 92.8654 31.1083V31.0658C92.8832 31.0701 92.8832 31.0577 92.8864 31.0448Z" fill="#9093B6"/>
<path opacity="0.58" fill-rule="evenodd" clip-rule="evenodd" d="M93.9464 31.0448H93.9895C93.9852 31.0626 93.9976 31.0647 94.0105 31.0658V31.1083C93.9927 31.1046 93.99 31.117 93.9895 31.1304H93.9464C93.9502 31.1121 93.9383 31.11 93.9249 31.1083V31.0658C93.9432 31.0701 93.9453 31.0577 93.9464 31.0448Z" fill="#9093B6"/>
<path opacity="0.58" fill-rule="evenodd" clip-rule="evenodd" d="M76.101 33.1429H76.1436C76.1398 33.1612 76.1516 33.1628 76.1646 33.1639V33.207C76.1468 33.2032 76.1446 33.215 76.1436 33.228H76.101C76.1048 33.2102 76.0924 33.208 76.0795 33.207V33.1639C76.0972 33.1677 76.0994 33.1558 76.101 33.1429Z" fill="#9093B6"/>
<path opacity="0.58" fill-rule="evenodd" clip-rule="evenodd" d="M77.1605 33.1429H77.2035C77.1992 33.1612 77.2116 33.1628 77.2245 33.1639V33.207C77.2062 33.2032 77.2046 33.215 77.2035 33.228H77.1605C77.1642 33.2102 77.1524 33.208 77.1389 33.207V33.1639C77.1572 33.1677 77.1594 33.1558 77.1605 33.1429Z" fill="#9093B6"/>
<path d="M56.9989 32.6025L55.4322 27.9514H55.8012L56.6022 30.3512C56.8227 31.0133 57.095 31.833 57.2082 32.249H57.2216C57.3156 31.8923 57.621 31.0459 57.8624 30.3448L58.6831 27.9514H59.051L57.4181 32.6025H56.9989Z" fill="white"/>
<path d="M60.1195 27.9514V32.6025H59.7756V27.9514H60.1195Z" fill="white"/>
<path d="M61.6873 30.3645V32.6025H61.3397V27.9514H62.8295C63.6156 27.9514 64.1603 28.3412 64.1603 29.1128C64.1603 29.807 63.7202 30.1034 63.371 30.1984C63.8724 30.34 64.1058 30.7351 64.1058 31.4031V31.4645C64.1058 31.9061 64.1058 32.3189 64.1725 32.6025H63.8185C63.7582 32.4209 63.7448 31.9158 63.7448 31.4843V31.409C63.7448 30.67 63.4778 30.3645 62.6128 30.3645H61.6873ZM61.6873 30.0596H62.6405C63.3454 30.0596 63.7923 29.8535 63.7923 29.1144C63.7923 28.574 63.4447 28.2563 62.781 28.2563H61.6873V30.0596Z" fill="white"/>
<path d="M66.0661 28.2697H64.6419V27.9493H67.8458V28.2697H66.4153V32.6025H66.0671L66.0661 28.2697Z" fill="white"/>
<path d="M68.8599 27.9514V30.9135C68.8599 31.7839 69.2108 32.3451 70.0983 32.3451C70.9857 32.3451 71.3163 31.8111 71.3163 30.9071V27.9514H71.6778V30.9338C71.6778 31.9184 71.2757 32.6692 70.0844 32.6692C69.0319 32.6692 68.5048 32.1224 68.5048 30.9861V27.9514H68.8599Z" fill="white"/>
<path d="M73.1254 30.9914L72.5914 32.6025H72.2368C72.7302 31.1361 73.2562 29.6148 73.8084 27.9514H74.2281L75.8605 32.6025H75.4787L74.9409 30.9914H73.1254ZM74.8341 30.671C74.3754 29.3131 74.0956 28.6034 74.0145 28.2729H74.0011C73.8612 28.8416 73.6012 29.5545 73.2284 30.671H74.8341Z" fill="white"/>
<path d="M76.5627 27.9514H76.9039V32.2906H79.2438L79.176 32.6025H76.5627V27.9514Z" fill="white"/>
<path d="M82.0072 30.9914L81.4732 32.6025H81.1187C81.6121 31.1361 82.138 29.6148 82.6902 27.9514H83.111L84.7434 32.6025H84.361L83.8228 30.9914H82.0072ZM83.716 30.671C83.2573 29.3131 82.9775 28.6034 82.8963 28.2729H82.883C82.7431 28.8416 82.4825 29.5545 82.1103 30.671H83.716Z" fill="white"/>
<path d="M85.7921 30.3645V32.6025H85.444V27.9514H86.9338C87.7204 27.9514 88.265 28.3412 88.265 29.1128C88.265 29.807 87.825 30.1034 87.4753 30.1984C87.9772 30.34 88.21 30.7351 88.21 31.4031V31.4645C88.21 31.9061 88.21 32.3189 88.2773 32.6025H87.9233C87.8629 32.4209 87.8491 31.9158 87.8491 31.4843V31.409C87.8491 30.67 87.5821 30.3645 86.717 30.3645H85.7921ZM85.7921 30.0596H86.7448C87.4496 30.0596 87.8971 29.8535 87.8971 29.1144C87.8971 28.574 87.5495 28.2563 86.8825 28.2563H85.7895L85.7921 30.0596Z" fill="white"/>
<path d="M90.1704 28.2697H88.7468V27.9493H91.9507V28.2697H90.5207V32.6025H90.172L90.1704 28.2697Z" fill="white"/>
<path d="M94.2393 31.3267C94.3461 32.0444 94.8369 32.3451 95.4248 32.3451C95.9999 32.3451 96.4826 32.0247 96.4826 31.3887C96.4826 30.8157 96.2477 30.5695 95.3415 30.2769C94.4353 29.9843 94.0599 29.6981 94.0599 29.0343C94.0599 28.3706 94.5336 27.8911 95.3858 27.8911C96.3144 27.8911 96.7117 28.487 96.7587 29.0866H96.4073C96.3278 28.5286 95.9898 28.2018 95.3623 28.2018C94.7349 28.2018 94.4246 28.5142 94.4246 29.0066C94.4246 29.4989 94.6724 29.7173 95.4734 29.9645C96.5948 30.3127 96.85 30.7297 96.85 31.3529C96.85 32.1368 96.2947 32.6489 95.4082 32.6489C94.4748 32.6489 93.9627 32.1267 93.889 31.3262L94.2393 31.3267Z" fill="white"/>
<path d="M97.7044 27.9514H99.1707C100.029 27.9514 100.59 28.4005 100.59 29.1748C100.59 30.0548 99.9904 30.4719 99.0944 30.4719H98.0504V32.6025H97.7023L97.7044 27.9514ZM98.0526 30.1605H99.0954C99.7619 30.1605 100.228 29.9405 100.228 29.1817C100.228 28.5554 99.7683 28.2563 99.0896 28.2563H98.0526V30.1605Z" fill="white"/>
<path d="M101.346 30.9914L100.812 32.6025H100.457C100.95 31.1361 101.476 29.6148 102.029 27.9514H102.448L104.081 32.6025H103.699L103.16 30.9914H101.346ZM103.054 30.671C102.596 29.3131 102.316 28.6034 102.235 28.2729H102.221C102.081 28.8416 101.821 29.5545 101.449 30.671H103.054Z" fill="white"/>
<path d="M107.896 31.3182C107.749 32.0305 107.291 32.6692 106.262 32.6692C104.965 32.6692 104.456 31.6546 104.456 30.2246C104.456 29.0552 104.994 27.8846 106.289 27.8846C107.241 27.8846 107.756 28.4395 107.875 29.2613H107.514C107.381 28.6173 107.004 28.2024 106.275 28.2024C105.269 28.2024 104.818 29.1572 104.818 30.2315C104.818 31.2669 105.15 32.352 106.276 32.352C107.011 32.352 107.362 31.9558 107.541 31.3187L107.896 31.3182Z" fill="white"/>
<path d="M111.241 30.3095H109.105V32.2906H111.448L111.395 32.6025H108.766V27.9514H111.349V28.2633H109.106V29.9913H111.242L111.241 30.3095Z" fill="white"/>
<path d="M56.5626 12.902H48.0054V20.5076H57.9414V21.0309H45.3435V4.39285H57.9414V4.9151H48.0054V12.3311H56.5626V12.902Z" fill="white"/>
<path d="M67.5185 14.0431V14.5659H59.8665V14.0431H67.5185Z" fill="white"/>
<path d="M87.4625 21.0314H84.5864L81.8529 15.6381H72.5829L69.8019 21.0314H69.2075L77.7647 4.39285H78.9528L87.4625 21.0314ZM81.5886 15.1127L77.2905 6.53202L72.844 15.1143L81.5886 15.1127Z" fill="white"/>
<path d="M90.1004 4.39285H96.4469C101.367 4.39285 103.364 6.58221 103.364 8.81376C103.364 10.7393 101.89 12.6884 98.7051 13.3062L107.024 21.0314H103.269L95.7815 13.4963H92.7629V21.0314H90.1004V4.39285ZM96.4709 12.9735C98.8477 12.9735 100.63 10.8819 100.63 8.83778C100.63 6.84066 99.6321 4.91563 96.4228 4.91563H92.7629V12.9735H96.4709Z" fill="white"/>
<path d="M107.476 4.39285H123V4.9151H116.556V21.0309H113.917V4.9151H107.476V4.39285Z" fill="white"/>
<path d="M32.2756 23.8827C31.6663 23.8222 31.3794 24.1135 30.9261 24.8339C29.0004 27.8827 26.0421 30.1533 22.5807 31.2395C19.0965 32.3305 15.3369 32.1826 11.951 30.8212C8.60878 29.4793 5.83062 26.9798 4.12734 23.7829C2.41904 20.576 1.91694 16.8976 2.71363 13.4243C3.93672 8.06706 7.23885 4.31324 12.5206 2.2708C13.1212 2.03864 13.3415 1.811 13.3903 1.36746C13.4436 0.895465 13.2954 0.483995 12.984 0.238287C12.7753 0.0787231 12.5178 -0.00527977 12.2543 0.000257212C12.0642 0.00209599 11.8758 0.0356905 11.697 0.0996248C4.84878 2.48895 0.0376277 9.24366 0.00023299 16.5277C-0.0234808 21.1632 1.76371 25.5073 5.03211 28.7603C8.59783 32.3086 13.6115 34.2629 19.1495 34.2643C24.8718 34.0326 29.8636 30.9481 33.2054 25.5769C33.4184 25.235 33.4435 24.8628 33.2765 24.5286C33.0969 24.1686 32.7229 23.9269 32.2756 23.8827Z" fill="white"/>
<path d="M5.35581 17.1178C5.41448 17.7375 5.47044 18.3227 5.57424 18.9046C6.33601 23.1793 9.24548 26.6531 13.3567 28.1984C17.468 29.7438 21.8383 29.0055 25.0641 26.2369C25.2541 26.0735 25.4251 25.7699 25.4621 25.5364C25.5429 25.0138 25.3267 24.6112 24.796 24.3053C24.435 24.0961 24.194 24.1545 23.6263 24.5893C21.9935 25.84 20.2818 26.5746 18.5384 26.7726C16.7599 26.9748 14.943 26.619 13.1401 25.7148C9.52979 23.9051 7.57165 20.7176 7.47462 16.5032C7.37353 12.0851 9.96213 8.29151 14.2309 6.60228C14.92 6.32907 15.1786 5.74903 14.9195 5.05036C14.7192 4.50814 14.4082 4.20971 13.5413 4.51561C8.67144 6.22913 5.42937 10.8513 5.27142 16.2926C5.30346 16.5691 5.33009 16.8479 5.35581 17.1178Z" fill="white"/>
<path d="M18.8218 17.5654C20.6039 17.5728 22.4164 17.5719 24.1692 17.5705H26.301H29.7705C30.5751 11.9552 26.4617 5.58498 21.2276 4.39774C21.0603 4.35988 20.6127 4.54736 20.4199 4.77271C20.3144 4.88977 20.2389 5.03308 20.2005 5.18921C20.1621 5.34534 20.1621 5.50916 20.2003 5.66533C20.2943 6.0583 20.5956 6.38524 21.0102 6.53994C24.3137 7.77566 26.4793 10.1732 27.4459 13.6647C27.4963 13.8635 27.5323 14.0661 27.5535 14.2706C27.568 14.381 27.583 14.4946 27.6032 14.6257L27.6993 15.2426H25.9163C25.2276 15.2426 24.5396 15.2426 23.8521 15.2426H22.0023C20.9303 15.2426 19.8503 15.2426 18.7778 15.251C18.2311 15.2542 17.578 15.4532 17.5714 16.3814C17.5714 16.7245 17.668 17.0117 17.8569 17.2126C18.0721 17.4407 18.4063 17.5635 18.8218 17.5654Z" fill="white"/>
</svg>
